<svg xmlns="http://www.w3.org/2000/svg" viewBox="0 0 720 400" font-family="'Segoe UI', system-ui, -apple-system, sans-serif" font-size="13">
  <defs>
    <linearGradient id="rootGrad" x1="0" y1="0" x2="0" y2="1">
      <stop offset="0%" stop-color="#6366f1"/>
      <stop offset="100%" stop-color="#4f46e5"/>
    </linearGradient>
    <linearGradient id="leafGrad" x1="0" y1="0" x2="0" y2="1">
      <stop offset="0%" stop-color="#10b981"/>
      <stop offset="100%" stop-color="#059669"/>
    </linearGradient>
    <linearGradient id="dataGrad" x1="0" y1="0" x2="0" y2="1">
      <stop offset="0%" stop-color="#f59e0b"/>
      <stop offset="100%" stop-color="#d97706"/>
    </linearGradient>
    <linearGradient id="proofGrad" x1="0" y1="0" x2="0" y2="1">
      <stop offset="0%" stop-color="#ef4444"/>
      <stop offset="100%" stop-color="#dc2626"/>
    </linearGradient>
    <filter id="shadow" x="-4%" y="-4%" width="108%" height="116%">
      <feDropShadow dx="0" dy="2" stdDeviation="3" flood-opacity="0.15"/>
    </filter>
  </defs>

  <!-- Title -->
  <text x="360" y="28" text-anchor="middle" font-size="16" font-weight="600" fill="#1e293b">Hash List: Verification Requires All n Hashes</text>

  <!-- Root hash at top -->
  <g filter="url(#shadow)">
    <rect x="210" y="48" width="300" height="44" rx="8" fill="url(#rootGrad)"/>
    <text x="360" y="66" text-anchor="middle" fill="white" font-weight="600" font-size="13">Root Hash</text>
    <text x="360" y="82" text-anchor="middle" fill="#c7d2fe" font-size="10">H( H0 ‖ H1 ‖ H2 ‖ H3 ‖ H4 ‖ H5 )</text>
  </g>

  <!-- Lines from root to all hashes -->
  <g stroke="#94a3b8" stroke-width="2" fill="none">
    <line x1="265" y1="92" x2="80"  y2="150"/>
    <line x1="300" y1="92" x2="190" y2="150"/>
    <line x1="335" y1="92" x2="300" y2="150"/>
    <line x1="385" y1="92" x2="410" y2="150"/>
    <line x1="420" y1="92" x2="520" y2="150"/>
    <line x1="455" y1="92" x2="630" y2="150"/>
  </g>

  <!-- Leaf hash nodes -->
  <g filter="url(#shadow)">
    <rect x="27" y="150" width="106" height="38" rx="8" fill="url(#leafGrad)"/>
    <text x="80" y="165" text-anchor="middle" fill="white" font-weight="600">H0</text>
    <text x="80" y="180" text-anchor="middle" fill="#d1fae5" font-size="10">H(item0)</text>
  </g>
  <g filter="url(#shadow)">
    <rect x="137" y="150" width="106" height="38" rx="8" fill="url(#leafGrad)"/>
    <text x="190" y="165" text-anchor="middle" fill="white" font-weight="600">H1</text>
    <text x="190" y="180" text-anchor="middle" fill="#d1fae5" font-size="10">H(item1)</text>
  </g>
  <g filter="url(#shadow)">
    <rect x="247" y="150" width="106" height="38" rx="8" fill="url(#leafGrad)"/>
    <text x="300" y="165" text-anchor="middle" fill="white" font-weight="600">H2</text>
    <text x="300" y="180" text-anchor="middle" fill="#d1fae5" font-size="10">H(item2)</text>
  </g>
  <g filter="url(#shadow)">
    <rect x="357" y="150" width="106" height="38" rx="8" fill="url(#leafGrad)"/>
    <text x="410" y="165" text-anchor="middle" fill="white" font-weight="600">H3</text>
    <text x="410" y="180" text-anchor="middle" fill="#d1fae5" font-size="10">H(item3)</text>
  </g>
  <g filter="url(#shadow)">
    <rect x="467" y="150" width="106" height="38" rx="8" fill="url(#leafGrad)"/>
    <text x="520" y="165" text-anchor="middle" fill="white" font-weight="600">H4</text>
    <text x="520" y="180" text-anchor="middle" fill="#d1fae5" font-size="10">H(item4)</text>
  </g>
  <g filter="url(#shadow)">
    <rect x="577" y="150" width="106" height="38" rx="8" fill="url(#leafGrad)"/>
    <text x="630" y="165" text-anchor="middle" fill="white" font-weight="600">H5</text>
    <text x="630" y="180" text-anchor="middle" fill="#d1fae5" font-size="10">H(item5)</text>
  </g>

  <!-- Dashed lines to data -->
  <g stroke="#94a3b8" stroke-width="2" fill="none">
    <line x1="80"  y1="188" x2="80"  y2="220" stroke-dasharray="4,3"/>
    <line x1="190" y1="188" x2="190" y2="220" stroke-dasharray="4,3"/>
    <line x1="300" y1="188" x2="300" y2="220" stroke-dasharray="4,3"/>
    <line x1="410" y1="188" x2="410" y2="220" stroke-dasharray="4,3"/>
    <line x1="520" y1="188" x2="520" y2="220" stroke-dasharray="4,3"/>
    <line x1="630" y1="188" x2="630" y2="220" stroke-dasharray="4,3"/>
  </g>

  <!-- Data blocks -->
  <g filter="url(#shadow)">
    <rect x="40" y="224" width="80" height="32" rx="6" fill="url(#dataGrad)"/>
    <text x="80" y="245" text-anchor="middle" fill="white" font-weight="600">item0</text>
  </g>
  <g filter="url(#shadow)">
    <rect x="150" y="224" width="80" height="32" rx="6" fill="url(#dataGrad)"/>
    <text x="190" y="245" text-anchor="middle" fill="white" font-weight="600">item1</text>
  </g>
  <g filter="url(#shadow)">
    <rect x="260" y="224" width="80" height="32" rx="6" fill="url(#dataGrad)"/>
    <text x="300" y="245" text-anchor="middle" fill="white" font-weight="600">item2</text>
  </g>
  <g filter="url(#shadow)">
    <rect x="370" y="224" width="80" height="32" rx="6" fill="url(#dataGrad)"/>
    <text x="410" y="245" text-anchor="middle" fill="white" font-weight="600">item3</text>
  </g>
  <g filter="url(#shadow)">
    <rect x="480" y="224" width="80" height="32" rx="6" fill="url(#dataGrad)"/>
    <text x="520" y="245" text-anchor="middle" fill="white" font-weight="600">item4</text>
  </g>
  <g filter="url(#shadow)">
    <rect x="590" y="224" width="80" height="32" rx="6" fill="url(#dataGrad)"/>
    <text x="630" y="245" text-anchor="middle" fill="white" font-weight="600">item5</text>
  </g>

  <!-- Verification callout -->
  <g transform="translate(40, 285)">
    <rect x="0" y="0" width="640" height="75" rx="8" fill="#fef2f2" stroke="#fca5a5" stroke-width="1.5"/>
    <text x="320" y="20" text-anchor="middle" font-size="13" font-weight="600" fill="#991b1b">To verify item2 is in the list, the verifier must:</text>
    <text x="320" y="40" text-anchor="middle" font-size="12" fill="#991b1b">1. Receive ALL 6 hashes: H0, H1, H2, H3, H4, H5</text>
    <text x="320" y="56" text-anchor="middle" font-size="12" fill="#991b1b">2. Concatenate and re-hash them: H(H0 ‖ H1 ‖ H2 ‖ H3 ‖ H4 ‖ H5)</text>
    <text x="320" y="72" text-anchor="middle" font-size="12" fill="#991b1b">3. Compare with the trusted root — no hash can be omitted</text>
  </g>

  <!-- Legend -->
  <g transform="translate(100, 378)">
    <rect x="0" y="0" width="14" height="14" rx="3" fill="url(#rootGrad)"/>
    <text x="20" y="12" fill="#475569" font-size="11">Root (hash of all hashes)</text>
    <rect x="200" y="0" width="14" height="14" rx="3" fill="url(#leafGrad)"/>
    <text x="220" y="12" fill="#475569" font-size="11">Individual hashes</text>
    <rect x="370" y="0" width="14" height="14" rx="3" fill="url(#dataGrad)"/>
    <text x="390" y="12" fill="#475569" font-size="11">Raw items</text>
  </g>
</svg>